<?xml version="1.0" standalone="no"?>
<!DOCTYPE svg PUBLIC "-//W3C//DTD SVG 20010904//EN"
 "http://www.w3.org/TR/2001/REC-SVG-20010904/DTD/svg10.dtd">
<svg version="1.0" xmlns="http://www.w3.org/2000/svg"
 width="3336.000000pt" height="1140.000000pt" viewBox="0 0 3336.000000 1140.000000"
 preserveAspectRatio="xMidYMid meet">

<g transform="translate(0.000000,1140.000000) scale(0.100000,-0.100000)"
fill="#000000" stroke="none">
<path d="M7920 9215 l0 -1945 235 0 235 0 0 853 c0 706 3 868 15 944 34 211
129 388 271 505 76 63 151 101 259 134 80 24 107 27 240 28 119 1 162 -3 209
-17 248 -77 379 -261 416 -587 6 -49 10 -459 10 -972 l0 -888 231 0 230 0 -4
973 c-3 940 -4 976 -25 1082 -94 490 -350 749 -796 805 -114 15 -287 9 -391
-14 -244 -52 -456 -191 -613 -400 l-52 -69 0 757 0 756 -235 0 -235 0 0 -1945z"/>
<path d="M29288 10413 l-3 -746 -37 55 c-84 127 -224 251 -353 313 -272 131
-661 138 -927 17 -306 -139 -547 -449 -649 -837 -47 -178 -62 -315 -62 -545 0
-230 15 -367 62 -545 101 -383 339 -694 639 -832 271 -126 661 -121 937 12
129 62 269 186 353 313 l37 55 3 -201 2 -202 235 0 235 0 0 1945 0 1945 -235
0 -235 0 -2 -747z m-553 -697 c291 -93 480 -359 539 -759 10 -65 16 -174 16
-287 0 -113 -6 -222 -16 -287 -54 -365 -216 -620 -467 -733 -100 -45 -160 -55
-307 -54 -117 1 -145 4 -215 27 -228 75 -390 250 -480 519 -58 174 -70 262
-70 528 0 266 12 354 71 529 47 140 104 238 195 335 108 114 227 179 373 206
92 17 271 5 361 -24z"/>
<path d="M30562 10950 l3 -182 180 -64 c99 -35 244 -87 323 -115 l142 -51 0
-574 c0 -316 -1 -574 -2 -574 -8 0 -640 -228 -644 -232 -2 -3 -3 -84 -2 -180
l3 -175 1200 458 c660 252 1230 470 1268 485 l67 26 -2 196 -3 195 -1250 479
c-687 263 -1258 480 -1268 484 -16 5 -17 -6 -15 -176z m1561 -746 c337 -124
616 -230 620 -234 5 -4 -4 -12 -20 -18 -28 -9 -1172 -435 -1205 -447 -17 -7
-18 19 -18 459 0 256 2 466 5 466 3 0 281 -102 618 -226z"/>
<path d="M290 9135 l0 -1865 245 0 245 0 0 1633 c1 1338 3 1628 14 1607 7 -14
224 -586 482 -1273 l469 -1247 255 2 254 3 476 1262 475 1262 3 -1624 2 -1625
250 0 250 0 0 1865 0 1865 -378 0 -377 0 -474 -1257 c-261 -692 -477 -1261
-480 -1265 -3 -4 -220 562 -481 1257 l-475 1265 -377 0 -378 0 0 -1865z"/>
<path d="M11945 10129 c-189 -21 -487 -91 -669 -159 l-56 -21 0 -214 0 -214
103 49 c313 148 697 211 997 165 125 -19 189 -38 285 -88 198 -103 314 -300
315 -534 l0 -73 -382 0 c-387 0 -534 -8 -689 -34 -362 -64 -618 -230 -739
-481 -60 -123 -82 -224 -87 -400 -4 -124 -2 -167 15 -245 38 -183 96 -294 222
-421 163 -165 356 -243 635 -256 426 -20 747 116 966 410 l59 79 0 -211 0
-211 230 0 231 0 -4 938 c-4 1010 -2 981 -58 1181 -67 240 -202 435 -388 560
-115 78 -266 135 -441 166 -114 20 -416 28 -545 14z m975 -1566 c0 -607 -365
-1002 -894 -970 -176 11 -296 57 -397 153 -100 96 -149 219 -149 376 0 160 36
264 125 357 90 94 215 144 440 175 148 21 170 22 548 24 l327 2 0 -117z"/>
<path d="M15484 10125 c-274 -42 -494 -179 -654 -407 l-50 -71 0 211 0 212
-235 0 -235 0 0 -1400 0 -1400 235 0 234 0 3 898 3 897 27 97 c42 152 106 267
208 369 69 70 101 94 170 128 127 61 192 75 350 75 201 1 300 -35 405 -145 98
-102 154 -254 174 -470 7 -70 11 -447 11 -981 l0 -868 230 0 230 0 0 843 c0
899 2 946 51 1102 76 248 255 428 489 495 105 29 272 37 370 16 228 -48 353
-192 417 -479 14 -63 17 -197 20 -1024 l4 -953 230 0 230 0 -3 978 c-3 895 -5
985 -22 1072 -74 386 -252 640 -526 753 -96 40 -181 57 -310 64 -218 11 -441
-41 -614 -144 -110 -66 -253 -209 -343 -344 l-70 -106 -38 85 c-128 282 -339
450 -627 497 -110 18 -251 18 -364 0z"/>
<path d="M20474 10125 c-274 -42 -494 -179 -654 -407 l-50 -71 0 211 0 212
-235 0 -235 0 0 -1400 0 -1400 235 0 234 0 3 898 3 897 27 97 c42 152 106 267
208 369 69 70 101 94 170 128 127 61 192 75 350 75 201 1 300 -35 405 -145 98
-102 154 -254 174 -470 7 -70 11 -447 11 -981 l0 -868 230 0 230 0 0 843 c0
899 2 946 51 1102 76 248 255 428 489 495 105 29 272 37 370 16 228 -48 353
-192 417 -479 14 -63 17 -197 20 -1024 l4 -953 230 0 230 0 -3 978 c-3 895 -5
985 -22 1072 -74 386 -252 640 -526 753 -96 40 -181 57 -310 64 -218 11 -441
-41 -614 -144 -110 -66 -253 -209 -343 -344 l-70 -106 -38 85 c-128 282 -339
450 -627 497 -110 18 -251 18 -364 0z"/>
<path d="M25065 10129 c-189 -21 -487 -91 -669 -159 l-56 -21 0 -214 0 -214
103 49 c313 148 697 211 997 165 125 -19 189 -38 285 -88 198 -103 314 -300
315 -534 l0 -73 -382 0 c-387 0 -534 -8 -689 -34 -362 -64 -618 -230 -739
-481 -60 -123 -82 -224 -87 -400 -4 -124 -2 -167 15 -245 38 -183 96 -294 222
-421 163 -165 356 -243 635 -256 426 -20 747 116 966 410 l59 79 0 -211 0
-211 230 0 231 0 -4 938 c-4 1010 -2 981 -58 1181 -67 240 -202 435 -388 560
-115 78 -266 135 -441 166 -114 20 -416 28 -545 14z m975 -1566 c0 -607 -365
-1002 -894 -970 -176 11 -296 57 -397 153 -100 96 -149 219 -149 376 0 160 36
264 125 357 90 94 215 144 440 175 148 21 170 22 548 24 l327 2 0 -117z"/>
<path d="M4643 9128 c3 -661 8 -968 17 -1028 30 -210 98 -404 188 -537 61 -89
187 -203 279 -250 264 -137 639 -150 924 -32 145 59 320 202 427 347 l47 64 3
-211 2 -211 230 0 230 0 0 1400 0 1400 -230 0 -230 0 0 -837 c0 -476 -5 -870
-10 -912 -16 -123 -39 -201 -92 -310 -43 -90 -61 -116 -136 -191 -142 -141
-294 -205 -517 -217 -310 -16 -514 110 -609 375 -56 156 -56 165 -56 1168 l0
924 -236 0 -236 0 5 -942z"/>
<path d="M30560 8296 l0 -155 608 -3 c667 -4 650 -3 790 -68 84 -39 183 -135
222 -214 43 -87 63 -193 57 -296 -10 -163 -71 -261 -200 -325 -128 -63 -156
-65 -853 -65 l-624 0 0 -160 0 -160 569 0 c598 0 769 8 898 40 246 63 400 206
460 430 25 90 24 309 -1 400 -39 142 -138 284 -271 388 l-40 31 148 1 147 0 0
155 0 155 -955 0 -955 0 0 -154z"/>
<path d="M270 4833 c0 -1313 4 -2160 10 -2263 46 -744 247 -1277 630 -1674
345 -358 814 -563 1450 -636 52 -6 196 -13 320 -17 1136 -30 1927 356 2316
1130 154 305 232 601 285 1072 8 70 13 759 16 2293 l4 2192 -450 0 -451 0 0
-2114 c0 -1395 -4 -2158 -11 -2243 -73 -897 -374 -1362 -994 -1537 -337 -95
-837 -100 -1182 -10 -693 180 -1000 687 -1043 1724 -5 124 -10 1115 -10 2203
l0 1977 -445 0 -445 0 0 -2097z"/>
<path d="M29833 6483 c6 -166 34 -267 97 -355 73 -103 211 -172 394 -197 51
-7 424 -11 1112 -11 l1034 0 0 155 0 154 -1067 4 c-949 3 -1074 5 -1121 19
-87 27 -114 48 -146 111 -25 49 -30 74 -34 158 l-5 99 -135 0 -135 0 6 -137z"/>
<path d="M32810 6075 l0 -155 200 0 200 0 0 155 0 155 -200 0 -200 0 0 -155z"/>
<path d="M8201 5399 c-877 -67 -1432 -460 -1566 -1108 -67 -322 -26 -701 102
-955 103 -205 306 -393 558 -519 218 -108 381 -158 895 -278 580 -134 774
-193 972 -296 162 -83 271 -215 313 -378 25 -97 30 -228 11 -325 -60 -321
-334 -522 -811 -597 -135 -21 -558 -24 -705 -5 -448 59 -842 177 -1248 376
l-152 75 2 -421 3 -421 110 -34 c411 -126 781 -206 1160 -250 209 -24 705 -24
890 0 548 73 933 238 1220 525 232 232 354 515 372 865 19 384 -91 726 -310
964 -101 110 -303 244 -495 328 -243 107 -435 165 -882 265 -865 194 -1109
308 -1217 570 -22 55 -27 84 -31 190 -7 218 37 339 174 476 69 70 96 89 185
133 232 112 530 160 929 148 472 -15 904 -115 1290 -301 41 -20 80 -36 87 -36
10 0 13 77 13 374 l0 374 -78 30 c-412 157 -955 244 -1502 240 -102 0 -232 -4
-289 -9z"/>
<path d="M13115 5404 c-22 -2 -92 -9 -155 -15 -339 -32 -732 -123 -1130 -261
l-155 -54 -3 -377 -2 -377 98 49 c282 142 571 238 882 295 225 41 342 50 600
51 184 0 272 -5 355 -18 581 -91 932 -388 1030 -872 9 -44 19 -139 22 -212 l6
-133 -654 0 c-360 0 -721 -5 -804 -10 -696 -46 -1182 -228 -1501 -563 -140
-146 -239 -310 -303 -503 -115 -343 -119 -810 -10 -1150 150 -471 532 -823
1032 -950 349 -88 800 -84 1179 12 284 71 541 212 749 411 87 83 211 232 269
323 l35 55 3 -368 2 -367 406 0 405 0 -4 1558 c-4 1651 -3 1623 -52 1902 -58
339 -185 654 -354 881 -281 377 -706 599 -1292 674 -117 15 -563 28 -654 19z
m1545 -2696 c-1 -435 -77 -775 -237 -1061 -180 -322 -440 -543 -764 -651 -134
-45 -252 -65 -419 -73 -565 -25 -969 223 -1092 672 -18 69 -21 106 -21 270 0
173 2 199 26 287 60 227 189 391 388 498 128 68 383 134 639 165 223 26 380
32 943 34 l537 1 0 -142z"/>
<path d="M19272 5400 c-341 -36 -642 -149 -877 -329 -146 -111 -317 -300 -425
-466 l-45 -69 -3 377 -2 377 -405 0 -405 0 0 -2460 0 -2460 405 0 404 0 4
1523 c3 1363 5 1532 20 1616 63 355 182 611 381 819 233 244 507 363 876 378
562 24 902 -230 1031 -772 55 -233 53 -154 56 -1927 l4 -1637 409 0 410 0 0
1475 c0 970 4 1509 11 1573 42 393 178 702 409 932 179 179 391 289 650 337
118 21 425 24 515 5 183 -40 314 -104 427 -210 93 -88 144 -159 204 -286 75
-159 121 -360 144 -626 6 -69 10 -733 10 -1657 l0 -1543 405 0 405 0 0 1593
c0 970 -4 1637 -10 1707 -40 457 -149 819 -333 1098 -228 346 -535 545 -957
619 -150 27 -496 24 -664 -6 -435 -76 -768 -265 -1053 -596 -88 -102 -216
-282 -273 -382 -13 -24 -26 -43 -29 -43 -3 0 -22 42 -41 92 -19 50 -61 138
-92 195 -228 412 -576 660 -1033 739 -106 18 -415 26 -533 14z"/>
<path d="M27405 5404 c-22 -2 -92 -9 -155 -15 -339 -32 -732 -123 -1130 -261
l-155 -54 -3 -377 -2 -377 98 49 c282 142 571 238 882 295 225 41 342 50 600
51 184 0 272 -5 355 -18 581 -91 932 -388 1030 -872 9 -44 19 -139 22 -212 l6
-133 -654 0 c-360 0 -721 -5 -804 -10 -696 -46 -1182 -228 -1501 -563 -140
-146 -239 -310 -303 -503 -115 -343 -119 -810 -10 -1150 150 -471 532 -823
1032 -950 349 -88 800 -84 1179 12 284 71 541 212 749 411 87 83 211 232 269
323 l35 55 3 -368 2 -367 406 0 405 0 -4 1558 c-4 1651 -3 1623 -52 1902 -58
339 -185 654 -354 881 -281 377 -706 599 -1292 674 -117 15 -563 28 -654 19z
m1545 -2696 c-1 -435 -77 -775 -237 -1061 -180 -322 -440 -543 -764 -651 -134
-45 -252 -65 -419 -73 -565 -25 -969 223 -1092 672 -18 69 -21 106 -21 270 0
173 2 199 26 287 60 227 189 391 388 498 128 68 383 134 639 165 223 26 380
32 943 34 l537 1 0 -142z"/>
<path d="M31090 5278 c-90 -13 -232 -62 -303 -105 -123 -75 -213 -197 -253
-343 -25 -91 -26 -310 -1 -400 32 -118 82 -205 171 -295 44 -45 95 -91 111
-103 l30 -21 -142 -1 -143 0 0 -160 0 -160 955 0 955 0 0 160 0 159 -622 3
c-621 3 -623 3 -693 27 -198 65 -320 196 -360 386 -47 224 24 410 188 489 125
61 113 60 830 64 l657 3 0 155 0 154 -657 -1 c-362 -1 -687 -6 -723 -11z"/>
<path d="M30560 2906 l0 -155 608 -4 c675 -4 665 -3 804 -73 131 -66 224 -184
253 -321 47 -219 -23 -395 -184 -466 -118 -52 -101 -51 -813 -54 l-668 -4 0
-159 0 -159 623 -3 c567 -3 627 -5 676 -22 211 -70 339 -207 371 -397 13 -76
9 -176 -10 -241 -28 -97 -120 -182 -236 -218 -116 -35 -212 -40 -826 -40
l-598 0 0 -156 0 -155 688 4 c673 3 689 4 772 25 334 88 504 308 486 632 -6
128 -25 202 -73 299 -46 91 -157 212 -255 277 l-70 47 88 46 c162 83 263 215
300 391 19 89 14 252 -12 345 -37 140 -138 281 -260 366 l-49 34 148 3 147 3
0 154 0 155 -955 0 -955 0 0 -154z"/>
</g>
</svg>
